<?xml version="1.0" encoding="UTF-8"?>
<svg width="460px" height="460px" viewBox="0 0 460 460" version="1.1" xmlns="http://www.w3.org/2000/svg" xmlns:xlink="http://www.w3.org/1999/xlink">
    <!-- Generator: Sketch 51.3 (57544) - http://www.bohemiancoding.com/sketch -->
    <title>logo-black</title>
    <desc>Created with Sketch.</desc>
    <defs></defs>
    <g id="logo-black" stroke="none" stroke-width="1" fill="none" fill-rule="evenodd">
        <g id="Page-1-Copy" transform="translate(30.000000, 1.000000)" fill="#000C18">
            <path d="M236.517389,204.005511 C238.417168,205.098548 239.971988,207.765598 239.971988,209.934918 L239.971988,340.034942 C239.971988,342.203275 238.417168,344.871311 236.517389,345.963363 L203.431238,364.987535 C201.531459,366.080572 198.421821,366.080572 196.522042,364.987535 L83.4451941,299.968077 C81.545415,298.876025 79.9905959,296.207989 79.9905959,294.039655 L79.9905959,163.939631 C79.9905959,161.771298 81.545415,159.103262 83.4451941,158.010224 L116.531346,138.986053 C118.431125,137.894001 121.540763,137.894001 123.440542,138.986053 L236.517389,204.005511 Z" id="Fill-1"></path>
            <path d="M359.958131,317.036904 C359.958131,319.205238 358.403312,321.873274 356.503533,322.966311 L323.417382,341.990483 C321.517603,343.082535 319.962783,342.202388 319.962783,340.034054 L319.962783,163.93973 C319.962783,161.771396 318.407964,159.10336 316.508185,158.010323 L163.43599,69.9937142 C161.536211,68.9006769 161.536211,67.1127872 163.43599,66.0207355 L196.522142,46.9965638 C198.421921,45.9035265 201.531559,45.9035265 203.431338,46.9965638 L356.503533,135.013172 C358.403312,136.105224 359.958131,138.77326 359.958131,140.941594 L359.958131,317.036904 Z M279.967436,363.032191 C279.967436,365.200524 278.412616,367.86856 276.512837,368.960612 L203.431338,410.98292 C201.531559,412.075957 198.421921,412.075957 196.522142,410.98292 L43.4499461,322.966311 C41.5501671,321.873274 39.9953479,319.205238 39.9953479,317.036904 L39.9953479,140.941594 C39.9953479,138.77326 41.5501671,136.105224 43.4499461,135.013172 L116.531446,92.9908646 C118.431225,91.8988129 121.540863,91.8988129 123.440642,92.9908646 L276.512837,181.008459 C278.412616,182.10051 279.967436,184.768547 279.967436,186.93688 L279.967436,363.032191 Z M203.431338,1.00127738 C201.531559,-0.091759941 198.421921,-0.091759941 196.522142,1.00127738 L3.45459818,112.016022 C1.55481915,113.108074 0,115.77611 0,117.944443 L0,340.034054 C0,342.202388 1.55481915,344.870424 3.45459818,345.963462 L196.522142,456.978206 C198.421921,458.070258 201.531559,458.070258 203.431338,456.978206 L396.498881,345.963462 C398.39866,344.870424 399.953479,342.202388 399.953479,340.034054 L399.953479,117.944443 C399.953479,115.77611 398.39866,113.108074 396.498881,112.016022 L203.431338,1.00127738 Z" id="Fill-3"></path>
        </g>
    </g>
</svg>